<?xml version="1.0" encoding="utf-8"?>
<!-- Generator: Adobe Illustrator 20.0.0, SVG Export Plug-In . SVG Version: 6.00 Build 0)  -->
<svg version="1.1" id="Layer_1" xmlns="http://www.w3.org/2000/svg" xmlns:xlink="http://www.w3.org/1999/xlink" x="0px" y="0px"
	 viewBox="0 0 9.8 9.8" style="enable-background:new 0 0 9.8 9.8;" xml:space="preserve">
<style type="text/css">
	.st0{fill:#0E88BF;}
	.st1{clip-path:url(#SVGID_2_);fill:#0E88BF;}
	.st2{fill:#FFFFFF;}
</style>
<rect x="0.5" y="0.5" class="st0" width="8.8" height="8.8"/>
<g>
	<defs>
		<rect id="SVGID_1_" width="9.8" height="9.8"/>
	</defs>
	<clipPath id="SVGID_2_">
		<use xlink:href="#SVGID_1_"  style="overflow:visible;"/>
	</clipPath>
	<path class="st1" d="M9.8,9.8H0V0h9.8V9.8z M1,8.8h7.8V1H1V8.8z"/>
</g>
<path class="st2" d="M3.9,6.9c-0.1,0-0.3-0.1-0.4-0.2c0,0,0,0,0,0c0,0,0,0,0,0L1.8,4.9c-0.2-0.2-0.2-0.5,0-0.7C2,4,2.3,4,2.5,4.2
	L4,5.7l3.4-3c0.2-0.2,0.5-0.2,0.7,0C8.2,3,8.2,3.3,8,3.5L4.3,6.8C4.2,6.9,4.1,6.9,3.9,6.9z"/>
</svg>
