<?xml version="1.0" encoding="UTF-8" standalone="no"?>
<svg width="44px" height="44px" viewBox="0 0 44 44" version="1.1" xmlns="http://www.w3.org/2000/svg" xmlns:xlink="http://www.w3.org/1999/xlink">
    <!-- Generator: Sketch 40.2 (33826) - http://www.bohemiancoding.com/sketch -->
    <title>ic_basetype</title>
    <desc>Created with Sketch.</desc>
    <defs>
        <polygon id="path-1" points="25.8712857 6.40998932e-05 25.8712857 25.9903222 0 25.9903222 0 6.40998932e-05 25.8712857 6.40998932e-05"></polygon>
    </defs>
    <g id="Symbols" stroke="none" stroke-width="1" fill="none" fill-rule="evenodd">
        <g id="Complex-Details_Table" transform="translate(-642.000000, -31.000000)">
            <g id="ic_basetype" transform="translate(642.000000, 31.000000)">
                <g id="Group-10" stroke-width="1" fill="#004666">
                    <circle id="Oval-Copy-4" cx="22" cy="22" r="22"></circle>
                </g>
                <g id="Page-1" stroke-width="1" transform="translate(9.000000, 11.000000)">
                    <mask id="mask-2" fill="white">
                        <use xlink:href="#path-1"></use>
                    </mask>
                    <g id="Clip-2"></g>
                    <path d="M0.754471429,0.816443333 L0.754471429,1.71026556 C0.754471429,5.07856556 0.7349,8.44701 0.778185714,11.8147322 C0.7839,12.2570211 1.00018571,12.8053322 1.30561429,13.1184878 C4.94732857,16.8529544 8.62418571,20.5524656 12.2931857,24.2599211 C12.4744714,24.4432211 12.6676143,24.6145322 12.8616143,24.7975433 C12.9806143,24.7162211 13.0679,24.6747656 13.1321857,24.60991 C16.9873286,20.7165544 20.8443286,16.8250767 24.6823286,12.9145322 C24.8706143,12.72271 24.9750429,12.3627544 24.9766143,12.0803656 C24.9961857,8.54393222 24.9906143,5.00735444 24.9866143,1.47077667 C24.9863286,1.26306556 24.9436143,1.05535444 24.9170429,0.816443333 L0.754471429,0.816443333 Z M25.8576143,0.000187777778 C25.8651857,4.15946556 25.8781857,8.31874333 25.8669,12.4780211 C25.8661857,12.7336878 25.7396143,13.05421 25.5623286,13.2346211 C21.4547571,17.4120989 17.3321857,21.5745544 13.2103286,25.7377322 C13.1293286,25.8196322 13.0240429,25.8768322 12.8689,25.9903656 C8.57332857,21.6539989 4.2869,17.3270211 0.000471428571,13.0001878 C0.000471428571,8.83527667 -0.00538571429,4.67051 0.0216142857,0.505887778 C0.0227571429,0.336165556 0.333471429,0.02171 0.500614286,0.0211322222 C8.9529,-0.00284555556 17.4053286,0.000187777778 25.8576143,0.000187777778 L25.8576143,0.000187777778 Z" id="Fill-1" fill="#FEFEFE" mask="url(#mask-2)"></path>
                </g>
                <polygon id="Page-1" fill="#FEFEFE" points="16.7896996 16 16.7896996 18.4970843 20.4523366 18.4970843 20.4523366 28.9293478 23.3376096 28.9293478 23.3376096 18.4970843 27 18.4970843 27 16"></polygon>
            </g>
        </g>
    </g>
</svg>