<?xml version="1.0" encoding="UTF-8" standalone="no"?>
<svg width="44px" height="44px" viewBox="0 0 44 44" version="1.1" xmlns="http://www.w3.org/2000/svg" xmlns:xlink="http://www.w3.org/1999/xlink">
    <!-- Generator: Sketch 40.2 (33826) - http://www.bohemiancoding.com/sketch -->
    <title>ic_codesample</title>
    <desc>Created with Sketch.</desc>
    <defs></defs>
    <g id="Symbols" stroke="none" stroke-width="1" fill="none" fill-rule="evenodd">
        <g id="Details_Table" transform="translate(-642.000000, -281.000000)">
            <g id="ic_codesample" transform="translate(642.000000, 281.000000)">
                <g id="Group-12">
                    <circle id="Oval-Copy-5" fill="#004666" cx="22" cy="22" r="22"></circle>
                    <g id="Page-1" transform="translate(7.000000, 12.000000)" fill="#FFFFFF">
                        <g id="Group-11">
                            <g>
                                <path d="M19.5149473,0.137360005 C19.1378806,-0.0516222242 18.679565,0.100102226 18.4910317,0.477168907 L9.30182687,18.7918363 C9.11329353,19.1684541 9.26501798,19.6272185 9.64208466,19.8157519 C9.75161355,19.8709652 9.86832467,19.8974496 9.984138,19.8974496 C10.262898,19.8974496 10.5331291,19.7430319 10.6664491,19.4763918 L19.8556539,1.16172449 C20.0437384,0.784657807 19.8920139,0.326342235 19.5149473,0.137360005" id="Fill-1"></path>
                                <path d="M0.265742232,9.98398157 C0.0974088926,10.1285238 0,10.3399505 0,10.5617016 C0,10.7834527 0.0974088926,10.9948794 0.265742232,11.1398705 L4.67293351,14.9374706 C4.81657796,15.061364 4.99388908,15.1224129 5.16985353,15.1224129 C5.38487131,15.1224129 5.59764466,15.0326351 5.74847133,14.8575684 C6.02364023,14.5379595 5.98772912,14.0563017 5.6685691,13.7811328 L1.93201785,10.5617016 L5.6685691,7.34137258 C5.98772912,7.06620368 6.02364023,6.584097 5.74847133,6.26493698 C5.47330243,5.94577697 4.99074686,5.90986586 4.67293351,6.18503476 L0.265742232,9.98398157 Z" id="Fill-5"></path>
                                <path d="M22.1845863,14.8575684 C22.3363107,15.0326351 22.549533,15.1224129 22.7632041,15.1224129 C22.9396174,15.1224129 23.1173774,15.061364 23.2610219,14.9374706 L27.6682132,11.1398705 C27.8365465,10.9948794 27.9330576,10.7834527 27.9330576,10.5617016 C27.9330576,10.3399505 27.8365465,10.1285238 27.6682132,9.98398157 L23.2610219,6.18503476 C22.9418619,5.90986586 22.4597552,5.94577697 22.1845863,6.26493698 C21.9103152,6.58454589 21.9453285,7.06620368 22.2653863,7.34137258 L26.0010398,10.5617016 L22.2653863,13.7811328 C21.9453285,14.0563017 21.9103152,14.5379595 22.1845863,14.8575684" id="Fill-9"></path>
                            </g>
                        </g>
                    </g>
                </g>
            </g>
        </g>
    </g>
</svg>