<?xml version="1.0" encoding="UTF-8" standalone="no"?>
<svg width="44px" height="44px" viewBox="0 0 44 44" version="1.1" xmlns="http://www.w3.org/2000/svg" xmlns:xlink="http://www.w3.org/1999/xlink">
    <!-- Generator: Sketch 40.2 (33826) - http://www.bohemiancoding.com/sketch -->
    <title>ic_definition</title>
    <desc>Created with Sketch.</desc>
    <defs></defs>
    <g id="Symbols" stroke="none" stroke-width="1" fill="none" fill-rule="evenodd">
        <g id="Details_Table" transform="translate(-20.000000, -31.000000)">
            <g id="ic_definition" transform="translate(20.000000, 31.000000)">
                <g id="Group-6">
                    <path d="M22,44 C34.1502645,44 44,34.1502645 44,22 C44,9.8497355 34.1502645,0 22,0 C9.8497355,0 0,9.8497355 0,22 C0,34.1502645 9.8497355,44 22,44 Z" id="Oval" fill="#004666"></path>
                    <g id="Group-5" transform="translate(13.000000, 11.000000)" fill="#FFFFFF">
                        <path d="M0,10.3983559 C0.569314172,10.3983559 1.08420861,10.1555602 1.5446833,9.66996865 C2.005158,9.18437715 2.23539535,8.49785124 2.23539535,7.61039091 L2.23539535,3.13960021 C2.23539535,2.55354151 2.31074576,2.05957774 2.46144657,1.65770891 C2.61214738,1.25584008 2.81308179,0.933507796 3.06424981,0.690712047 C3.31541782,0.447916297 3.60426104,0.272098685 3.93077947,0.163259211 C4.25729789,0.054419737 4.59637471,0 4.94800993,0 L6.55548524,0 L6.55548524,1.5070081 L5.14894435,1.5070081 C4.84754273,1.5070081 4.60893311,1.56980011 4.4331155,1.69538411 C4.25729789,1.82096812 4.13171388,1.98422733 4.05636347,2.18516175 C3.98101307,2.38609616 3.9349656,2.61214738 3.91822106,2.86331539 C3.90147653,3.11448341 3.89310426,3.35727916 3.89310426,3.59170264 L3.89310426,7.91179253 C3.89310426,8.51459577 3.80519546,9.02111794 3.62937785,9.43135904 C3.45356023,9.84160013 3.24425355,10.1681186 3.0014578,10.4109143 C2.75866205,10.6537101 2.51168017,10.8295277 2.26051215,10.9383671 C2.00934414,11.0472066 1.80840972,11.1099986 1.65770891,11.1267432 C1.80840972,11.1937213 2.00934414,11.2565133 2.26051215,11.3653528 C2.51168017,11.4741922 2.75866205,11.6500099 3.0014578,11.8928056 C3.24425355,12.1356014 3.45356023,12.4621198 3.62937785,12.8723609 C3.80519546,13.282602 3.89310426,13.7891241 3.89310426,14.3919274 L3.89310426,18.7120173 C3.89310426,18.9464407 3.90147653,19.1892365 3.91822106,19.4404045 C3.9349656,19.6915725 3.98101307,19.9176237 4.05636347,20.1185582 C4.13171388,20.3194926 4.25729789,20.4827518 4.4331155,20.6083358 C4.60893311,20.7339198 4.84754273,20.7967118 5.14894435,20.7967118 L6.55548524,20.7967118 L6.55548524,22.3037199 L4.94800993,22.3037199 C4.59637471,22.3037199 4.25729789,22.2493002 3.93077947,22.1404607 C3.60426104,22.0316212 3.31541782,21.8558036 3.06424981,21.6130079 C2.81308179,21.3702121 2.61214738,21.0478798 2.46144657,20.646011 C2.31074576,20.2441422 2.23539535,19.7501784 2.23539535,19.1641197 L2.23539535,14.693329 C2.23539535,13.8058687 2.005158,13.1193428 1.5446833,12.6337513 C1.08420861,12.1481598 0.569314172,11.905364 0,11.905364 L0,10.3983559 Z" id="Page-1"></path>
                        <path d="M12.3913043,10.3983559 C12.9606185,10.3983559 13.475513,10.1555602 13.9359877,9.66996865 C14.3964623,9.18437715 14.6266997,8.49785124 14.6266997,7.61039091 L14.6266997,3.13960021 C14.6266997,2.55354151 14.7020501,2.05957774 14.8527509,1.65770891 C15.0034517,1.25584008 15.2043861,0.933507796 15.4555542,0.690712047 C15.7067222,0.447916297 15.9955654,0.272098685 16.3220838,0.163259211 C16.6486022,0.054419737 16.9876791,0 17.3393143,0 L18.9467896,0 L18.9467896,1.5070081 L17.5402487,1.5070081 C17.2388471,1.5070081 17.0002375,1.56980011 16.8244198,1.69538411 C16.6486022,1.82096812 16.5230182,1.98422733 16.4476678,2.18516175 C16.3723174,2.38609616 16.3262699,2.61214738 16.3095254,2.86331539 C16.2927809,3.11448341 16.2844086,3.35727916 16.2844086,3.59170264 L16.2844086,7.91179253 C16.2844086,8.51459577 16.1964998,9.02111794 16.0206822,9.43135904 C15.8448646,9.84160013 15.6355579,10.1681186 15.3927622,10.4109143 C15.1499664,10.6537101 14.9029845,10.8295277 14.6518165,10.9383671 C14.4006485,11.0472066 14.1997141,11.1099986 14.0490133,11.1267432 L14.0490133,11.1769768 C14.1997141,11.1937213 14.4006485,11.2565133 14.6518165,11.3653528 C14.9029845,11.4741922 15.1499664,11.6500099 15.3927622,11.8928056 C15.6355579,12.1356014 15.8448646,12.4621198 16.0206822,12.8723609 C16.1964998,13.282602 16.2844086,13.7891241 16.2844086,14.3919274 L16.2844086,18.7120173 C16.2844086,18.9464407 16.2927809,19.1892365 16.3095254,19.4404045 C16.3262699,19.6915725 16.3723174,19.9176237 16.4476678,20.1185582 C16.5230182,20.3194926 16.6486022,20.4827518 16.8244198,20.6083358 C17.0002375,20.7339198 17.2388471,20.7967118 17.5402487,20.7967118 L18.9467896,20.7967118 L18.9467896,22.3037199 L17.3393143,22.3037199 C16.9876791,22.3037199 16.6486022,22.2493002 16.3220838,22.1404607 C15.9955654,22.0316212 15.7067222,21.8558036 15.4555542,21.6130079 C15.2043861,21.3702121 15.0034517,21.0478798 14.8527509,20.646011 C14.7020501,20.2441422 14.6266997,19.7501784 14.6266997,19.1641197 L14.6266997,14.693329 C14.6266997,13.8058687 14.3964623,13.1193428 13.9359877,12.6337513 C13.475513,12.1481598 12.9606185,11.905364 12.3913043,11.905364 L12.3913043,10.3983559 Z" id="Page-1-Copy" transform="translate(15.669047, 11.151860) scale(-1, 1) translate(-15.669047, -11.151860) "></path>
                    </g>
                </g>
            </g>
        </g>
    </g>
</svg>