<?xml version="1.0" encoding="utf-8"?>
<!-- Generator: Adobe Illustrator 20.0.0, SVG Export Plug-In . SVG Version: 6.00 Build 0)  -->
<svg version="1.1" id="Layer_1" xmlns="http://www.w3.org/2000/svg" xmlns:xlink="http://www.w3.org/1999/xlink" x="0px" y="0px"
	 viewBox="0 0 68 68" style="enable-background:new 0 0 68 68;" xml:space="preserve">
<style type="text/css">
	.st0{fill:#FFFFFF;}
	.st1{fill:#221F20;}
	.st2{fill:#58CBA9;}
</style>
<title>ic_export</title>
<desc>Created with Sketch.</desc>
<g id="Symbols">
	<g id="Footer" transform="translate(-298.000000, -33.000000)">
		
			<g id="ic_export" transform="translate(332.000000, 67.000000) rotate(-2.000000) translate(-332.000000, -67.000000) translate(299.000000, 34.000000)">
			<g id="Group-4_1_">
				<g id="Oval">
					<path class="st0" d="M31.8,66c-8.4-0.3-16.2-3.7-22.2-9.6C3.4,50.1,0,41.8,0,33C0,14.8,14.8,0,33,0l0,0
						c8.8,0,17.1,3.4,23.3,9.7C62.6,15.9,66,24.2,66,33c0,8.8-3.4,17.1-9.7,23.3C50.1,62.6,41.8,66,33,66C32.6,66,32.2,66,31.8,66z
						 M33,0.9C15.3,0.9,0.9,15.3,0.9,33c0,8.6,3.3,16.6,9.4,22.7c6.1,6.1,14.1,9.4,22.7,9.4c8.6,0,16.6-3.3,22.7-9.4
						c6.1-6.1,9.4-14.1,9.4-22.7c0-8.6-3.3-16.6-9.4-22.7C49.6,4.3,41.6,0.9,33,0.9L33,0.9z"/>
				</g>
				<g id="Page-1" transform="translate(18.000000, 17.000000)">
					<g id="Fill-1">
						<path class="st0" d="M14.9,27.8l0-28.5L14.9,27.8z"/>
					</g>
					<g id="Fill-4">
						<polygon class="st0" points="-0.8,13.7 15,29.5 16.1,28.3 0.3,12.6 						"/>
					</g>
					<g id="Fill-5">
						<path class="st1" d="M30.2,13.2L15.2,28.1"/>
					</g>
					<g id="Fill-7">
						<path class="st0" d="M-0.2,32l30.4,0L-0.2,32z"/>
					</g>
					<g id="Group-4">
						<g id="Fill-2">
							<polygon class="st0" points="14.1,27.8 15.7,27.8 15.7,-0.7 14.1,-0.7 							"/>
						</g>
						<g id="Fill-3">
							<path class="st2" d="M-0.2,13.2l15.8,15.8"/>
						</g>
						<g id="Fill-6">
							<polygon class="st0" points="14.7,27.5 15.8,28.7 30.7,13.7 29.6,12.6 							"/>
						</g>
						<g id="Fill-8">
							<polygon class="st0" points="-0.2,32.8 30.2,32.8 30.2,31.2 -0.2,31.2 							"/>
						</g>
					</g>
				</g>
			</g>
		</g>
	</g>
</g>
</svg>
