<?xml version="1.0" encoding="UTF-8" standalone="no"?>
<svg width="44px" height="44px" viewBox="0 0 44 44" version="1.1" xmlns="http://www.w3.org/2000/svg" xmlns:xlink="http://www.w3.org/1999/xlink">
    <!-- Generator: Sketch 40.2 (33826) - http://www.bohemiancoding.com/sketch -->
    <title>ic_keywords</title>
    <desc>Created with Sketch.</desc>
    <defs>
        <polygon id="path-1" points="3.75e-05 0.036289572 3.75e-05 21.5048949 21.9378325 21.5048949 21.9378325 0.036289572"></polygon>
    </defs>
    <g id="Symbols" stroke="none" stroke-width="1" fill="none" fill-rule="evenodd">
        <g id="ic_keywords">
            <circle id="Oval-Copy-2" fill="#004666" cx="22" cy="22" r="22"></circle>
            <g id="Group-3" transform="translate(11.000000, 11.085898)">
                <mask id="mask-2" fill="white">
                    <use xlink:href="#path-1"></use>
                </mask>
                <use id="Clip-2" xlink:href="#path-1"></use>
                <path d="M1.3622875,20.5638097 C2.2367875,20.5686972 3.1112875,20.5628323 3.9856625,20.5732182 C4.2637875,20.5765172 4.4551625,20.447732 4.6365375,20.2682391 C5.0752875,19.8336196 5.5116625,19.3963119 5.9639125,18.9753773 C6.2085375,18.7476205 6.3129125,18.493227 6.3006625,18.162833 C6.2817875,17.6546568 6.2877875,17.1451366 6.2997875,16.6365938 C6.3126625,16.0955493 6.4619125,15.9459923 7.0080375,15.933407 C7.5699125,15.920333 8.1325375,15.9391498 8.6944125,15.9246095 C9.2472875,15.9103136 9.5260375,15.6331933 9.5417875,15.0887275 C9.5552875,14.620873 9.5442875,14.1525298 9.5465375,13.684431 C9.5505375,12.8429284 9.6422875,12.7559312 10.5276625,12.7528765 C10.9857875,12.7511659 11.4441625,12.742124 11.9017875,12.7549537 C12.1940375,12.7631402 12.4274125,12.6751655 12.6216625,12.4629265 C12.7462875,12.3266878 12.9030375,12.2161085 13.0152875,12.0715612 C13.3732875,11.6103048 13.7892875,11.5378479 14.3785375,11.6601572 C18.3314125,12.4806436 21.8134125,8.97949413 20.9066625,5.12974482 C20.2281625,2.24930587 17.3034125,0.429695413 14.3490375,1.05016156 C11.3517875,1.67954737 9.4206625,4.52369675 10.0682875,7.43504905 C10.2025375,8.03877556 10.0494125,8.4091247 9.6219125,8.82113963 C7.2051625,11.1502703 4.8282875,13.5189897 2.4046625,15.8411557 C1.7556625,16.4629659 1.2109125,17.0775671 1.2881625,18.0273275 C1.2914125,18.0665496 1.2715375,18.1069935 1.2674125,18.1473153 C1.1877875,18.9123288 1.1089125,19.6773423 1.0249125,20.4906197 C1.2045375,20.5308192 1.2832875,20.563321 1.3622875,20.5638097 Z M0.2794125,19.0373262 C0.3804125,18.2710908 0.4321625,17.4978908 0.5574125,16.7359319 C0.5965375,16.4984002 0.7661625,16.2508491 0.9431625,16.0709897 C1.7225375,15.2789728 2.5264125,14.5099271 3.3215375,13.7326949 C5.1180375,11.9766218 6.9034125,10.2095518 8.7197875,8.4735173 C9.1035375,8.1067116 9.2351625,7.76043332 9.1525375,7.24162685 C8.8374125,5.26488377 9.4025375,3.50954373 10.8005375,2.07470049 C12.6282875,0.199006148 14.8939125,-0.414006588 17.4216625,0.367990922 C19.9164125,1.13996909 21.3944125,2.87380419 21.8495375,5.41126393 C22.4034125,8.49954316 20.3014125,11.7327363 16.9489125,12.4795439 C16.1312875,12.6616027 15.3037875,12.7438346 14.4737875,12.5529784 C14.0465375,12.4547399 13.7025375,12.5458915 13.4314125,12.896202 C13.3319125,13.0247428 13.1904125,13.121515 13.0824125,13.244924 C12.8187875,13.5462374 12.4954125,13.663537 12.0874125,13.6459421 C11.5751625,13.6238262 11.0606625,13.6478971 10.4669125,13.6527846 C10.4620375,14.2152118 10.4575375,14.6971178 10.4537875,15.1790238 C10.4465375,16.1066683 9.7220375,16.8114436 8.7674125,16.8162089 C8.2909125,16.8186526 7.8142875,16.8165754 7.2529125,16.8165754 C7.2349125,17.2050083 7.2111625,17.5399231 7.2054125,17.8750824 C7.1837875,19.1296996 7.3520375,18.8348621 6.3926625,19.7804682 C5.8065375,20.3581688 5.2144125,20.9302489 4.6250375,21.5048949 L3.75e-05,21.5048949 L3.75e-05,20.7717722 C0.0942875,20.1938272 0.2029125,19.6175928 0.2794125,19.0373262 Z" id="Fill-1" stroke="#FFFFFF" stroke-width="0.25" fill="#FFFFFF" mask="url(#mask-2)"></path>
            </g>
            <path d="M26.2349682,15.8898016 C25.4975932,15.8725732 24.9199682,16.4141065 24.9103432,17.1315892 C24.9010932,17.8278114 25.4289682,18.3797306 26.1340932,18.4111327 C26.8690932,18.444001 27.4648432,17.9117539 27.4904682,17.1997696 C27.5162182,16.4802098 26.9667182,15.9069078 26.2349682,15.8898016 M28.3975932,17.179731 C28.3732182,18.340142 27.3383432,19.323626 26.1679682,19.2985777 C24.9820932,19.2732849 23.9787182,18.2643859 24.0003432,17.1191262 C24.0223432,15.9645801 25.0573432,14.9809739 26.2300932,15.0002795 C27.4109682,15.0197072 28.4215932,16.0359374 28.3975932,17.179731" id="Fill-4" stroke="#FFFFFF" stroke-width="0.15" fill="#FFFFFF"></path>
        </g>
    </g>
</svg>