<?xml version="1.0" encoding="UTF-8" standalone="no"?>
<svg width="44px" height="44px" viewBox="0 0 44 44" version="1.1" xmlns="http://www.w3.org/2000/svg" xmlns:xlink="http://www.w3.org/1999/xlink">
    <!-- Generator: Sketch 40.2 (33826) - http://www.bohemiancoding.com/sketch -->
    <title>ic_simpletype</title>
    <desc>Created with Sketch.</desc>
    <defs></defs>
    <g id="Symbols" stroke="none" stroke-width="1" fill="none" fill-rule="evenodd">
        <g id="Details_Table" transform="translate(-642.000000, -31.000000)">
            <g id="ic_simpletype" transform="translate(642.000000, 31.000000)">
                <g id="Group-10">
                    <circle id="Oval-Copy-4" fill="#004666" cx="22" cy="22" r="22"></circle>
                    <path d="M23.442,25.69 C23.1419985,25.2699979 22.7580023,24.8680019 22.29,24.484 C21.8219977,24.0999981 21.3240026,23.7160019 20.796,23.332 C20.2679974,22.9479981 19.7700023,22.5220023 19.302,22.054 C18.8339977,21.5859977 18.4500015,21.0460031 18.15,20.434 C17.8499985,19.8219969 17.7,19.0840043 17.7,18.22 C17.7,17.3559957 17.8679983,16.6000032 18.204,15.952 C18.5400017,15.3039968 19.0019971,14.7640022 19.59,14.332 C20.1780029,13.8999978 20.8859959,13.5700011 21.714,13.342 C22.5420041,13.1139989 23.4479951,13 24.432,13 C25.0560031,13 25.7579961,13.0539995 26.538,13.162 C27.3180039,13.2700005 28.0559965,13.527998 28.752,13.936 C28.752,14.2000013 28.7040005,14.5059983 28.608,14.854 C28.5119995,15.2020017 28.3860008,15.5379984 28.23,15.862 C28.0739992,16.1860016 27.900001,16.4859986 27.708,16.762 C27.515999,17.0380014 27.3120011,17.2239995 27.096,17.32 L24.432,14.548 C23.9279975,14.5720001 23.4600022,14.6319995 23.028,14.728 C22.5959978,14.8240005 22.2180016,14.9799989 21.894,15.196 C21.5699984,15.4120011 21.3180009,15.6939983 21.138,16.042 C20.9579991,16.3900017 20.868,16.8279974 20.868,17.356 C20.868,17.9800031 21.0239984,18.5139978 21.336,18.958 C21.6480016,19.4020022 22.0379977,19.821998 22.506,20.218 C22.9740023,20.614002 23.4779973,20.9979981 24.018,21.37 C24.5580027,21.7420019 25.0619977,22.1619977 25.53,22.63 C25.9980023,23.0980023 26.3879984,23.6379969 26.7,24.25 C27.0120016,24.8620031 27.168,25.5879958 27.168,26.428 C27.168,27.2920043 26.970002,28.0599966 26.574,28.732 C26.177998,29.4040034 25.6380034,29.9739977 24.954,30.442 C24.2699966,30.9100023 23.4780045,31.2639988 22.578,31.504 C21.6779955,31.7440012 20.724005,31.864 19.716,31.864 C18.707995,31.864 17.7900041,31.762001 16.962,31.558 C16.1339959,31.353999 15.4800024,31.0960016 15,30.784 C15.1200006,30.1599969 15.2639992,29.5540029 15.432,28.966 C15.6000008,28.3779971 15.9479974,27.8320025 16.476,27.328 L19.716,30.316 C20.2200025,30.316 20.7179975,30.2560006 21.21,30.136 C21.7020025,30.0159994 22.145998,29.8240013 22.542,29.56 C22.938002,29.2959987 23.2619987,28.9720019 23.514,28.588 C23.7660013,28.2039981 23.9039999,27.7360028 23.928,27.184 C23.9039999,26.6079971 23.7420015,26.1100021 23.442,25.69 Z" id="s" fill="#FFFFFF"></path>
                </g>
            </g>
        </g>
    </g>
</svg>