<?xml version="1.0" encoding="UTF-8" standalone="no"?>
<svg width="44px" height="44px" viewBox="0 0 44 44" version="1.1" xmlns="http://www.w3.org/2000/svg" xmlns:xlink="http://www.w3.org/1999/xlink">
    <!-- Generator: Sketch 40.2 (33826) - http://www.bohemiancoding.com/sketch -->
    <title>ic_usageinfo</title>
    <desc>Created with Sketch.</desc>
    <defs></defs>
    <g id="Symbols" stroke="none" stroke-width="1" fill="none" fill-rule="evenodd">
        <g id="Details_Table" transform="translate(-642.000000, -156.000000)">
            <g id="ic_usageinfo" transform="translate(642.000000, 156.000000)">
                <g id="Group-13">
                    <circle id="Oval-Copy-3" fill="#004666" cx="22" cy="22" r="22"></circle>
                    <g id="Group-9" transform="translate(18.000000, 11.000000)" fill="#FFFFFF">
                        <path d="M0.726919339,8.32108844 L0.726919339,7.57278912 C1.15452109,7.45306063 1.63912914,7.32834532 2.18075802,7.19863946 C2.7223869,7.06893359 3.27826084,6.95419551 3.8483965,6.85442177 C4.41853217,6.75464803 4.96015293,6.66984162 5.47327502,6.6 C5.98639712,6.53015838 6.44249881,6.4952381 6.84159378,6.4952381 L7.61127308,6.85442177 L3.59183673,20.1442177 L6.75607386,20.1442177 L6.75607386,20.922449 C6.15743141,21.241725 5.45902569,21.5011328 4.66083576,21.7006803 C3.86264583,21.9002278 3.07872105,22 2.3090379,22 C1.48234119,22 0.890834305,21.8702961 0.534499514,21.6108844 C0.178164723,21.3514726 0,21.0521559 0,20.7129252 C0,20.3138302 0.0427595335,19.9247184 0.128279883,19.5455782 C0.213800233,19.166438 0.327825656,18.7473946 0.470359572,18.2884354 L3.46355685,8.62040816 L0.726919339,8.32108844 Z M4.19047619,1.67619048 C4.19047619,1.15736702 4.41852704,0.748300816 4.87463557,0.448979592 C5.3307441,0.149658367 5.92937757,0 6.67055394,0 C7.46874387,0 8.09588369,0.149658367 8.55199223,0.448979592 C9.00810076,0.748300816 9.2361516,1.15736702 9.2361516,1.67619048 C9.2361516,2.17505918 9.00810076,2.56417094 8.55199223,2.84353741 C8.09588369,3.12290389 7.46874387,3.26258503 6.67055394,3.26258503 C5.92937757,3.26258503 5.3307441,3.12290389 4.87463557,2.84353741 C4.41852704,2.56417094 4.19047619,2.17505918 4.19047619,1.67619048 L4.19047619,1.67619048 Z" id="i"></path>
                    </g>
                </g>
            </g>
        </g>
    </g>
</svg>