<?xml version="1.0" encoding="utf-8"?>
<!-- Generator: Adobe Illustrator 20.0.0, SVG Export Plug-In . SVG Version: 6.00 Build 0)  -->
<svg version="1.1" id="Layer_1" xmlns="http://www.w3.org/2000/svg" xmlns:xlink="http://www.w3.org/1999/xlink" x="0px" y="0px"
	 viewBox="0 0 251.4 247" style="enable-background:new 0 0 251.4 247;" xml:space="preserve">
<style type="text/css">
	.st0{fill:#FFFFFF;}
</style>
<path class="st0" d="M0,125.6c0-1.1,0.3-2.2,0.9-3.1l31.6-51.7c1.1-1.8,3-2.9,5.1-2.9h60.3c2.2,0,4.2,1.2,5.3,3.2l28.2,52.5
	c1,1.8,1,4,0,5.7l-28.2,50.9c-1.1,1.9-3.1,3.1-5.3,3.1l-61.4,0c-2.1,0-4.1-1.1-5.2-2.9L0.8,128.6C0.3,127.7,0,126.6,0,125.6z
	 M41,79.8l-28,45.8l27,45.6l54.4,0l24.9-45l-25-46.5H41z"/>
<path class="st0" d="M119.3,57.7c0-1.1,0.3-2.2,0.9-3.1l31.6-51.7c1.1-1.8,3-2.9,5.1-2.9h60.3c2.2,0,4.2,1.2,5.3,3.2l28.2,52.5
	c1,1.8,1,4,0,5.7l-28.2,50.9c-1.1,1.9-3.1,3.1-5.3,3.1l-61.4,0c-2.1,0-4.1-1.1-5.2-2.9l-30.5-51.7C119.6,59.8,119.3,58.8,119.3,57.7
	z M160.3,12l-28,45.8l27,45.6l54.4,0l24.9-45l-25-46.5H160.3z"/>
<path class="st0" d="M119.3,189.3c0-1.1,0.3-2.2,0.9-3.1l31.6-51.7c1.1-1.8,3-2.9,5.1-2.9h60.3c2.2,0,4.2,1.2,5.3,3.2l28.2,52.5
	c1,1.8,1,4,0,5.7l-28.2,50.9c-1.1,1.9-3.1,3.1-5.3,3.1l-61.4,0c-2.1,0-4.1-1.1-5.2-2.9l-30.5-51.7
	C119.6,191.4,119.3,190.3,119.3,189.3z M160.3,143.5l-28,45.8l27,45.6l54.4,0l24.9-45l-25-46.5H160.3z"/>
</svg>
