<?xml version="1.0" encoding="utf-8"?>
<!-- Generator: Adobe Illustrator 20.0.0, SVG Export Plug-In . SVG Version: 6.00 Build 0)  -->
<svg version="1.1" id="Layer_1" xmlns="http://www.w3.org/2000/svg" xmlns:xlink="http://www.w3.org/1999/xlink" x="0px" y="0px"
	 viewBox="0 0 112.5 132.1" style="enable-background:new 0 0 112.5 132.1;" xml:space="preserve">
<style type="text/css">
	.st0{fill:#010101;}
</style>
<path class="st0" d="M57.7,132.1c-1.1,0-2.2-0.3-3.1-0.9L2.9,99.6c-1.8-1.1-2.9-3-2.9-5.1V34.2C0,32,1.2,30,3.2,29L55.7,0.8
	c1.8-1,4-1,5.7,0L112.3,29l-5.8,10.5l-48-26.6L12,37.9v53.3l45.8,28l48.6-28.7l6.1,10.3l-51.7,30.5
	C59.8,131.9,58.8,132.1,57.7,132.1z"/>
<g>
	<path class="st0" d="M59.2,58.2v22.2c0,1.9,0.5,3.4,1.5,4.5s2.1,1.6,3.5,1.6c2.6,0,4.8-1.2,6.5-3.5l5.2,9.7
		c-4.3,3.9-8.8,5.9-13.6,5.9s-8.8-1.6-12.1-4.7c-3.3-3.1-4.9-7.4-4.9-12.8V58.4h-5.8v-9.9h5.8V33.7h13.9v14.8h12v9.9h-12V58.2z"/>
</g>
</svg>
