<?xml version="1.0" encoding="utf-8"?>
<!-- Generator: Adobe Illustrator 20.0.0, SVG Export Plug-In . SVG Version: 6.00 Build 0)  -->
<svg version="1.1" id="Layer_1" xmlns="http://www.w3.org/2000/svg" xmlns:xlink="http://www.w3.org/1999/xlink" x="0px" y="0px"
	 viewBox="0 0 143.3 170.3" style="enable-background:new 0 0 143.3 170.3;" xml:space="preserve">
<style type="text/css">
	.st0{fill:#FFFFFF;}
</style>
<g id="h7YMU7.tif">
	<g>
		<g>
			<path class="st0" d="M83.3,0c0.1,2,0.2,4,0.2,6c0,27.8,0,55.6,0,83.4c0,1.8,0,3.6,0,6.6c10.8-10.9,20.9-21.1,31.6-31.8
				c5.5,5.5,10.7,10.6,16.2,16.1c-19.9,20.3-39.3,40.1-58.3,59.5C53,119.6,33.2,99.8,13.3,79.9c1.2-2.4,10.6-11.9,15.5-15.2
				C38.9,74.8,49.1,85,59.1,95c0.5-0.1,0.7-0.1,0.8-0.1c0.1-0.1,0.2-0.3,0.2-0.4c0-31.5,0.1-62.9,0.1-94.4C68,0,75.6,0,83.3,0z"/>
			<path class="st0" d="M143.3,170c-1.7,0.1-3.3,0.3-5,0.3c-44.1,0-88.2,0-132.3,0c-1.7,0-3.3,0-4.8,0c-1.4-3.8-1.6-16.5-0.4-22.2
				c1.3-0.1,2.8-0.3,4.2-0.3c44.8,0,89.5,0,134.3,0c1.3,0,2.6,0.2,4,0.3C143.3,155.3,143.3,162.7,143.3,170z"/>
		</g>
	</g>
</g>
</svg>
