<?xml version="1.0" encoding="utf-8"?>
<!-- Generator: Adobe Illustrator 20.0.0, SVG Export Plug-In . SVG Version: 6.00 Build 0)  -->
<svg version="1.1" id="Layer_1" xmlns="http://www.w3.org/2000/svg" xmlns:xlink="http://www.w3.org/1999/xlink" x="0px" y="0px"
	 viewBox="0 0 87.7 87.7" style="enable-background:new 0 0 87.7 87.7;" xml:space="preserve">
<style type="text/css">
	.st0{fill:#FFFFFF;}
</style>
<g id="h7YMU7.tif">
	<g>
		<g>
			<path class="st0" d="M48,21.9c0,0.5,0.1,1,0.1,1.5c0,7.1,0,14.2,0,21.4c0,0.5,0,0.9,0,1.7c2.8-2.8,5.4-5.4,8.1-8.1
				c1.4,1.4,2.8,2.7,4.2,4.1c-5.1,5.2-10.1,10.3-14.9,15.2c-5.1-5.1-10.2-10.2-15.3-15.3c0.3-0.6,2.7-3,4-3.9
				c2.6,2.6,5.2,5.2,7.8,7.8c0.1,0,0.2,0,0.2,0c0,0,0.1-0.1,0.1-0.1c0-8.1,0-16.1,0-24.2C44.1,21.9,46,21.9,48,21.9z"/>
			<path class="st0" d="M63.4,65.4c-0.4,0-0.8,0.1-1.3,0.1c-11.3,0-22.6,0-33.9,0c-0.4,0-0.8,0-1.2,0c-0.4-1-0.4-4.2-0.1-5.7
				c0.3,0,0.7-0.1,1.1-0.1c11.5,0,22.9,0,34.4,0c0.3,0,0.7,0,1,0.1C63.4,61.7,63.4,63.6,63.4,65.4z"/>
		</g>
	</g>
</g>
<path class="st0" d="M43.8,87.7C19.7,87.7,0,68,0,43.8C0,19.7,19.7,0,43.8,0C68,0,87.7,19.7,87.7,43.8C87.7,68,68,87.7,43.8,87.7z
	 M43.8,5C22.4,5,5,22.4,5,43.8c0,21.4,17.4,38.8,38.8,38.8c21.4,0,38.8-17.4,38.8-38.8C82.7,22.4,65.2,5,43.8,5z"/>
</svg>
