<?xml version="1.0" encoding="utf-8"?>
<!-- Generator: Adobe Illustrator 20.0.0, SVG Export Plug-In . SVG Version: 6.00 Build 0)  -->
<svg version="1.1" id="Layer_1" xmlns="http://www.w3.org/2000/svg" xmlns:xlink="http://www.w3.org/1999/xlink" x="0px" y="0px"
	 viewBox="0 0 112.4 132.1" style="enable-background:new 0 0 112.4 132.1;" xml:space="preserve">
<style type="text/css">
	.st0{fill:#ffffff;}
</style>
<path class="st0" d="M57.7,132.1c-1.1,0-2.2-0.3-3.1-0.9L2.9,99.6c-1.8-1.1-2.9-3-2.9-5.1V34.2C0,32,1.2,30,3.2,29L55.7,0.8
	c1.8-1,4-1,5.7,0L112.3,29l-5.8,10.5L58.4,12.9l-46.5,25v53.3l45.8,28l48.6-28.7l6.1,10.3l-51.7,30.5
	C59.8,131.8,58.8,132.1,57.7,132.1z"/>
<g>
	<path class="st0" d="M83.2,85.4c-6.4,6.1-14,9.1-22.6,9.1c-8.7,0-15.8-2.7-21.5-8S30.6,74,30.6,65s2.9-16.1,8.6-21.4
		c5.8-5.3,12.6-8,20.4-8s14.5,2.4,20,7.1s8.2,11.2,8.2,19.5v8.5H46.2c0.5,3.1,2.1,5.7,4.9,7.6c2.8,2,5.9,3,9.3,3
		c5.6,0,10.2-1.9,13.8-5.6L83.2,85.4z M67.9,51.5c-2.2-1.8-4.9-2.8-8-2.8s-6,1-8.6,2.9s-4.1,4.5-4.6,7.7h25
		C71.4,56,70.1,53.4,67.9,51.5z"/>
</g>
</svg>
