<?xml version="1.0" encoding="utf-8"?>
<!-- Generator: Adobe Illustrator 20.0.0, SVG Export Plug-In . SVG Version: 6.00 Build 0)  -->
<svg version="1.1" id="Layer_1" xmlns="http://www.w3.org/2000/svg" xmlns:xlink="http://www.w3.org/1999/xlink" x="0px" y="0px"
	 viewBox="0 0 264 74.8" style="enable-background:new 0 0 264 74.8;" xml:space="preserve">
<style type="text/css">
	.st0{fill:#FFFFFF;}
</style>
<g>
	<polygon class="st0" points="21.3,0.1 0,0.1 7.2,25.3 21.8,2.4 	"/>
	<polygon class="st0" points="72.2,49.3 59.7,0.1 45.1,0.1 32.5,49.3 25.7,19.4 11.8,41.3 21.1,73.8 41.2,73.8 52.4,27.6 63.5,73.8 
		83.6,73.8 104.7,0.1 83.3,0.1 	"/>
	<rect x="110.7" y="0.1" class="st0" width="19" height="73.7"/>
	<path class="st0" d="M159.4,20.5c0-3.1,2.4-5.3,8-5.3c7.3,0,15.4,2.5,21.5,7.6l10.4-13.6C191.5,2.5,181.2-1,169.4-1
		C150.5-1,140,10,140,22.4c0,28.4,41.8,20.3,41.8,30.4c0,3.5-4,6.1-10.5,6.1c-10.1,0-18.2-4.4-23.5-9.7l-10.1,14.3
		c7.4,7.1,17.8,11.7,32.7,11.7c19.8,0,30.7-9.8,30.7-24.6C201.1,23.1,159.4,29.9,159.4,20.5z"/>
	<polygon class="st0" points="203.8,0.1 203.8,16.7 224.5,16.7 224.5,73.8 243.5,73.8 243.5,16.7 264,16.7 264,0.1 	"/>
</g>
</svg>
