<?xml version="1.0" encoding="utf-8"?>
<!-- Generator: Adobe Illustrator 20.0.0, SVG Export Plug-In . SVG Version: 6.00 Build 0)  -->
<svg version="1.1" id="Layer_1" xmlns="http://www.w3.org/2000/svg" xmlns:xlink="http://www.w3.org/1999/xlink" x="0px" y="0px"
	 viewBox="0 0 271 92.1" style="enable-background:new 0 0 271 92.1;" xml:space="preserve">
<style type="text/css">
	.st0{fill:#FFFFFF;}
</style>
<g>
	<path class="st0" d="M54.8,73.5c9.8,0,17.7-3.9,23.9-11.6L91.5,75c-10.1,11.4-22,17.1-35.7,17.1c-13.7,0-25-4.3-33.9-13
		C13,70.4,8.6,59.5,8.6,46.3s4.5-24.2,13.6-33C31.2,4.4,42.2,0,55.3,0C69.9,0,82.1,5.6,92,16.7l-12.3,14C73.3,22.9,65.5,19,56.2,19
		c-7.5,0-13.9,2.4-19.2,7.3c-5.3,4.9-8,11.5-8,19.7s2.5,14.9,7.5,19.9C41.6,71,47.7,73.5,54.8,73.5z"/>
	<path class="st0" d="M148,73.5c9.8,0,17.7-3.9,23.9-11.6L184.7,75c-10.1,11.4-22,17.1-35.7,17.1c-13.7,0-25-4.3-33.9-13
		c-8.9-8.7-13.3-19.6-13.3-32.8s4.5-24.2,13.6-33c9-8.8,20.1-13.2,33.2-13.2c14.6,0,26.8,5.6,36.7,16.7l-12.3,14
		c-6.3-7.8-14.1-11.7-23.4-11.7c-7.5,0-13.9,2.4-19.2,7.3c-5.3,4.9-8,11.5-8,19.7s2.5,14.9,7.5,19.9C134.8,71,140.9,73.5,148,73.5z"
		/>
	<path class="st0" d="M261.6,10c6.2,5.3,9.4,13.5,9.4,24.4c0,11-3.2,19-9.6,24.1c-6.4,5.1-16.2,7.6-29.3,7.6h-11.8V91h-19.9V2h31.4
		C245.4,2,255.4,4.7,261.6,10z M247.1,45c2.4-2.7,3.6-6.6,3.6-11.7c0-5.1-1.5-8.8-4.6-11c-3.1-2.2-7.9-3.2-14.5-3.2h-11.3V49h13.4
		C240.2,49,244.7,47.7,247.1,45z"/>
</g>
<polygon class="st0" points="41.5,47.6 0,23.5 0.5,68.3 "/>
</svg>
