<?xml version="1.0" encoding="utf-8"?>
<!-- Generator: Adobe Illustrator 20.0.0, SVG Export Plug-In . SVG Version: 6.00 Build 0)  -->
<svg version="1.1" id="Layer_1" xmlns="http://www.w3.org/2000/svg" xmlns:xlink="http://www.w3.org/1999/xlink" x="0px" y="0px"
	 viewBox="0 0 1500 1161" style="enable-background:new 0 0 1500 1161;" xml:space="preserve">
<style type="text/css">
	.st0{fill:url(#SVGID_1_);}
	.st1{opacity:0.52;fill:url(#SVGID_2_);}
	.st2{opacity:0.5;fill:url(#SVGID_3_);}
	.st3{opacity:0.1;fill:#FFFFFF;}
	.st4{opacity:0.14;fill:url(#SVGID_4_);}
	.st5{opacity:0.51;fill:url(#SVGID_5_);}
	.st6{opacity:0.51;fill:url(#SVGID_6_);}
	.st7{opacity:0.48;fill:#72C69E;}
	.st8{fill:none;}
	.st9{opacity:0.32;fill:#FFFFFF;}
	.st10{opacity:0.66;fill:url(#SVGID_7_);}
	.st11{opacity:0.37;fill:#FFFFFF;}
	.st12{opacity:0.45;fill:url(#SVGID_8_);}
	.st13{opacity:0.59;fill:url(#SVGID_9_);}
	.st14{opacity:0.29;fill:#FFFFFF;}
	.st15{opacity:0.5;fill:url(#SVGID_10_);}
	.st16{opacity:0.69;fill:url(#SVGID_11_);}
	.st17{fill:url(#SVGID_12_);}
	.st18{opacity:0.84;fill:url(#SVGID_13_);}
	.st19{opacity:0.5;fill:url(#SVGID_14_);}
	.st20{opacity:0.48;fill:#8ACEB0;}
	.st21{opacity:0.5;fill:url(#SVGID_15_);}
	.st22{opacity:0.83;fill:url(#SVGID_16_);}
	.st23{opacity:0.25;fill:url(#SVGID_17_);}
	.st24{opacity:0.5;fill:url(#SVGID_18_);}
	.st25{opacity:0.37;fill:url(#SVGID_19_);}
	.st26{opacity:0.5;fill:#108D85;}
	.st27{opacity:0.7;fill:url(#SVGID_20_);}
	.st28{opacity:0.83;fill:url(#SVGID_21_);}
	.st29{fill:#A2D7C1;}
	.st30{opacity:0.13;fill:#0D4F56;}
	.st31{opacity:0.3;fill:#043A38;}
</style>
<g>
	<linearGradient id="SVGID_1_" gradientUnits="userSpaceOnUse" x1="0" y1="580.5" x2="1500" y2="580.5">
		<stop  offset="0" style="stop-color:#1E8593"/>
		<stop  offset="0.1838" style="stop-color:#2B9DAB"/>
		<stop  offset="0.491" style="stop-color:#5FC094"/>
		<stop  offset="0.8619" style="stop-color:#A4D6B1"/>
		<stop  offset="1" style="stop-color:#DEEED0"/>
	</linearGradient>
	<rect class="st0" width="1500" height="1161"/>
	<linearGradient id="SVGID_2_" gradientUnits="userSpaceOnUse" x1="1213.4506" y1="1058.6633" x2="524.0485" y2="347.3755">
		<stop  offset="0.2575" style="stop-color:#FFFFFF"/>
		<stop  offset="0.3737" style="stop-color:#FFFFFF"/>
		<stop  offset="0.8099" style="stop-color:#FFFFFF;stop-opacity:0"/>
	</linearGradient>
	<rect class="st1" width="1500" height="1161"/>
	<linearGradient id="SVGID_3_" gradientUnits="userSpaceOnUse" x1="63.4912" y1="-18.843" x2="73.3778" y2="366.7341">
		<stop  offset="7.216597e-02" style="stop-color:#00393A;stop-opacity:0.6243"/>
		<stop  offset="0.1271" style="stop-color:#004041;stop-opacity:0.5607"/>
		<stop  offset="0.2206" style="stop-color:#265355;stop-opacity:0.4523"/>
		<stop  offset="0.3414" style="stop-color:#547578;stop-opacity:0.3122"/>
		<stop  offset="0.4831" style="stop-color:#9CAFB1;stop-opacity:0.1478"/>
		<stop  offset="0.6106" style="stop-color:#FFFFFF;stop-opacity:0"/>
		<stop  offset="0.8148" style="stop-color:#003A46;stop-opacity:0"/>
	</linearGradient>
	<polygon class="st2" points="140,0 129,198 0,470 0,0 	"/>
	<polygon class="st3" points="265,0 331,310 129,198 230,0 	"/>
	<linearGradient id="SVGID_4_" gradientUnits="userSpaceOnUse" x1="363.1629" y1="-95.3202" x2="408.1674" y2="276.717">
		<stop  offset="7.774633e-02" style="stop-color:#000000"/>
		<stop  offset="0.1945" style="stop-color:#00090F;stop-opacity:0.8734"/>
		<stop  offset="0.3393" style="stop-color:#001D28;stop-opacity:0.7164"/>
		<stop  offset="0.499" style="stop-color:#002C39;stop-opacity:0.5432"/>
		<stop  offset="0.6694" style="stop-color:#00373F;stop-opacity:0.3584"/>
		<stop  offset="0.8463" style="stop-color:#004040;stop-opacity:0.1667"/>
		<stop  offset="1" style="stop-color:#00453D;stop-opacity:0"/>
	</linearGradient>
	<polygon class="st4" points="447,56 331,310 505,406 	"/>
	<linearGradient id="SVGID_5_" gradientUnits="userSpaceOnUse" x1="1065.9075" y1="198.0568" x2="633.8643" y2="204.0574">
		<stop  offset="0.4963" style="stop-color:#FFFFFF"/>
		<stop  offset="1" style="stop-color:#FFFFFF;stop-opacity:0"/>
	</linearGradient>
	<polygon class="st5" points="867,0 763,406 447,56 657,0 	"/>
	<linearGradient id="SVGID_6_" gradientUnits="userSpaceOnUse" x1="1086.8462" y1="309.3787" x2="1011.8387" y2="-32.6555">
		<stop  offset="0.367" style="stop-color:#FFFFFF"/>
		<stop  offset="0.4448" style="stop-color:#F7F9F6;stop-opacity:0.8771"/>
		<stop  offset="0.524" style="stop-color:#E6EDE6;stop-opacity:0.7519"/>
		<stop  offset="0.604" style="stop-color:#D0DECF;stop-opacity:0.6256"/>
		<stop  offset="0.6844" style="stop-color:#B4CAB3;stop-opacity:0.4985"/>
		<stop  offset="0.7653" style="stop-color:#91B291;stop-opacity:0.3707"/>
		<stop  offset="0.8466" style="stop-color:#6A996D;stop-opacity:0.2424"/>
		<stop  offset="0.9265" style="stop-color:#3E7F47;stop-opacity:0.1161"/>
		<stop  offset="1" style="stop-color:#00682A;stop-opacity:0"/>
	</linearGradient>
	<polygon class="st6" points="931,0 1137,214 1107,0 	"/>
	<polygon class="st7" points="1325,0 1137,214 1325,490 1399,0 	"/>
	<polygon class="st8" points="1425,0 1500,602 1500,776 1325,490 1399,0 	"/>
	<polygon class="st9" points="1137,214 1111,538 763,406 	"/>
	<linearGradient id="SVGID_7_" gradientUnits="userSpaceOnUse" x1="1213.155" y1="950.0428" x2="1217.8063" y2="531.4377">
		<stop  offset="0.4963" style="stop-color:#FFFFFF"/>
		<stop  offset="1" style="stop-color:#FFFFFF;stop-opacity:0"/>
	</linearGradient>
	<polygon class="st10" points="1325,490 1313,936 1111,538 	"/>
	<polygon class="st11" points="1137,214 1325,490 1111,538 	"/>
	<linearGradient id="SVGID_8_" gradientUnits="userSpaceOnUse" x1="155.8728" y1="311.2013" x2="53.8626" y2="602.2303">
		<stop  offset="0.3373" style="stop-color:#FFFFFF"/>
		<stop  offset="1" style="stop-color:#FFFFFF;stop-opacity:0"/>
	</linearGradient>
	<polygon class="st12" points="129,198 185,514 0,514 0,470 	"/>
	<polygon class="st9" points="331,310 185,514 129,198 	"/>
	<linearGradient id="SVGID_9_" gradientUnits="userSpaceOnUse" x1="825.6249" y1="1232.5321" x2="420.5844" y2="227.4316">
		<stop  offset="0.4963" style="stop-color:#FFFFFF"/>
		<stop  offset="1" style="stop-color:#FFFFFF;stop-opacity:0"/>
	</linearGradient>
	<polygon class="st13" points="360,488 505,406 701,664 829,830 629,1022 483,766 	"/>
	<polygon class="st14" points="505,406 763,406 701,664 	"/>
	<linearGradient id="SVGID_10_" gradientUnits="userSpaceOnUse" x1="40.2156" y1="756.4521" x2="173.669" y2="577.5857">
		<stop  offset="0.3373" style="stop-color:#FFFFFF"/>
		<stop  offset="1" style="stop-color:#FFFFFF;stop-opacity:0"/>
	</linearGradient>
	<polygon class="st15" points="0,514 185,514 293,714 	"/>
	<linearGradient id="SVGID_11_" gradientUnits="userSpaceOnUse" x1="-91.9746" y1="678.0724" x2="463.1514" y2="930.2103">
		<stop  offset="0.2522" style="stop-color:#006463"/>
		<stop  offset="0.4479" style="stop-color:#29907F"/>
		<stop  offset="0.6144" style="stop-color:#42BC99"/>
	</linearGradient>
	<polygon class="st16" points="483,766 168,1002 0,566 0,514 293,714 	"/>
	<linearGradient id="SVGID_12_" gradientUnits="userSpaceOnUse" x1="0" y1="863.5" x2="168" y2="863.5">
		<stop  offset="0" style="stop-color:#006463"/>
		<stop  offset="0.2143" style="stop-color:#0F7873"/>
		<stop  offset="0.5748" style="stop-color:#1F988C"/>
		<stop  offset="0.7648" style="stop-color:#26A799"/>
	</linearGradient>
	<polygon class="st17" points="0,566 168,1002 0,1161 	"/>
	<polygon class="st8" points="1500,1130 1313,936 1500,776 	"/>
	<linearGradient id="SVGID_13_" gradientUnits="userSpaceOnUse" x1="629" y1="1048.5" x2="1500" y2="1048.5">
		<stop  offset="0.4963" style="stop-color:#FFFFFF"/>
		<stop  offset="1" style="stop-color:#FFFFFF;stop-opacity:0"/>
	</linearGradient>
	<polygon class="st18" points="629,1022 1313,936 1500,1130 1500,1161 	"/>
	<linearGradient id="SVGID_14_" gradientUnits="userSpaceOnUse" x1="386.5888" y1="750.762" x2="275.5777" y2="507.7377">
		<stop  offset="0" style="stop-color:#FFFFFF"/>
		<stop  offset="1" style="stop-color:#FFFFFF;stop-opacity:0"/>
	</linearGradient>
	<polygon class="st19" points="360,488 293,714 185,514 	"/>
	<polygon class="st20" points="1425,0 1500,0 1500,602 	"/>
	<linearGradient id="SVGID_15_" gradientUnits="userSpaceOnUse" x1="0" y1="1091.5" x2="1500" y2="1091.5">
		<stop  offset="0" style="stop-color:#FFFFFF"/>
		<stop  offset="1" style="stop-color:#FFFFFF;stop-opacity:0"/>
	</linearGradient>
	<polygon class="st21" points="0,1161 629,1022 1500,1161 	"/>
	<linearGradient id="SVGID_16_" gradientUnits="userSpaceOnUse" x1="1127.1572" y1="981.7717" x2="899.1345" y2="549.7285">
		<stop  offset="0.2575" style="stop-color:#FFFFFF"/>
		<stop  offset="0.3737" style="stop-color:#FFFFFF"/>
		<stop  offset="0.8099" style="stop-color:#FFFFFF;stop-opacity:0"/>
	</linearGradient>
	<polygon class="st22" points="1111,538 829,830 1313,936 	"/>
	<linearGradient id="SVGID_17_" gradientUnits="userSpaceOnUse" x1="79.9895" y1="412" x2="539.9609" y2="412">
		<stop  offset="0.3373" style="stop-color:#FFFFFF"/>
		<stop  offset="1" style="stop-color:#FFFFFF;stop-opacity:0"/>
	</linearGradient>
	<polygon class="st23" points="331,310 505,406 360,488 185,514 	"/>
	<linearGradient id="SVGID_18_" gradientUnits="userSpaceOnUse" x1="961.5835" y1="717.1298" x2="799.033" y2="377.5154">
		<stop  offset="0" style="stop-color:#FFFFFF"/>
		<stop  offset="1" style="stop-color:#FFFFFF;stop-opacity:0"/>
	</linearGradient>
	<polygon class="st24" points="701,664 829,830 1111,538 763,406 	"/>
	<linearGradient id="SVGID_19_" gradientUnits="userSpaceOnUse" x1="652.5604" y1="432.8094" x2="490.5442" y2="198.7861">
		<stop  offset="0.3373" style="stop-color:#FFFFFF"/>
		<stop  offset="1" style="stop-color:#FFFFFF;stop-opacity:0"/>
	</linearGradient>
	<polygon class="st25" points="447,56 763,406 505,406 	"/>
	<polygon class="st26" points="293,714 168,1002 483,766 	"/>
	<linearGradient id="SVGID_20_" gradientUnits="userSpaceOnUse" x1="616.0701" y1="944.7715" x2="171.3284" y2="967.0086">
		<stop  offset="0" style="stop-color:#FFFFFF"/>
		<stop  offset="1" style="stop-color:#D1DD27;stop-opacity:0"/>
	</linearGradient>
	<polygon class="st27" points="0,1161 168,1002 483,766 629,1022 	"/>
	<linearGradient id="SVGID_21_" gradientUnits="userSpaceOnUse" x1="1134.1898" y1="867.0741" x2="189.2745" y2="1105.2235">
		<stop  offset="0.2575" style="stop-color:#FFFFFF"/>
		<stop  offset="0.3737" style="stop-color:#FFFFFF"/>
		<stop  offset="0.8099" style="stop-color:#FFFFFF;stop-opacity:0"/>
	</linearGradient>
	<polygon class="st28" points="629,1022 829,830 1313,936 	"/>
	<polygon class="st29" points="867,0 931,0 1137,214 763,406 	"/>
</g>
<polygon class="st30" points="-1,-0.9 0,313.2 367.5,0.7 "/>
<polygon class="st31" points="1500,-0.9 1499,373.2 1101.6,0.7 "/>
</svg>
