<?xml version="1.0" encoding="utf-8"?>
<!-- Generator: Adobe Illustrator 19.0.0, SVG Export Plug-In . SVG Version: 6.00 Build 0)  -->
<svg version="1.1" id="Layer_1" xmlns="http://www.w3.org/2000/svg" xmlns:xlink="http://www.w3.org/1999/xlink" x="0px" y="0px"
	 viewBox="0 0 1280 989" style="enable-background:new 0 0 1280 989;" xml:space="preserve">
<style type="text/css">
	.st0{fill:url(#XMLID_23_);}
	.st1{opacity:0.5;fill:url(#XMLID_24_);}
	.st2{opacity:0.1;fill:#FFFFFF;}
	.st3{opacity:0.4;fill:url(#XMLID_25_);}
	.st4{opacity:0.3;fill:url(#XMLID_26_);}
	.st5{opacity:0.4;fill:url(#XMLID_27_);}
	.st6{opacity:0.3;fill:#108D85;}
	.st7{fill:none;}
	.st8{opacity:0.32;fill:#FFFFFF;}
	.st9{opacity:0.6;fill:url(#XMLID_28_);}
	.st10{opacity:0.37;fill:#FFFFFF;}
	.st11{opacity:0.45;fill:url(#XMLID_29_);}
	.st12{opacity:0.59;fill:url(#XMLID_30_);}
	.st13{opacity:0.29;fill:#FFFFFF;}
	.st14{opacity:0.5;fill:url(#XMLID_31_);}
	.st15{opacity:0.4;fill:url(#XMLID_32_);}
	.st16{opacity:0.8;fill:url(#XMLID_33_);}
	.st17{opacity:0.7;fill:url(#XMLID_34_);}
	.st18{opacity:0.5;fill:url(#XMLID_35_);}
	.st19{opacity:0.6;fill:url(#XMLID_36_);}
	.st20{opacity:0.25;fill:url(#XMLID_37_);}
	.st21{opacity:0.5;fill:url(#XMLID_56_);}
	.st22{opacity:0.4;fill:url(#XMLID_57_);}
	.st23{opacity:0.4;fill:url(#XMLID_58_);}
	.st24{opacity:0.7;fill:url(#XMLID_59_);}
	.st25{opacity:0.4;fill:url(#XMLID_60_);}
	.st26{opacity:0.1;fill:url(#XMLID_61_);}
</style>
<linearGradient id="XMLID_23_" gradientUnits="userSpaceOnUse" x1="626.449" y1="-53.4906" x2="647.9438" y2="784.8083">
	<stop  offset="0" style="stop-color:#244D64"/>
	<stop  offset="0.4051" style="stop-color:#007783"/>
	<stop  offset="0.6591" style="stop-color:#58C2AF"/>
	<stop  offset="0.8619" style="stop-color:#3EBCA0"/>
	<stop  offset="1" style="stop-color:#59AAAE"/>
</linearGradient>
<rect id="XMLID_11_" x="0" class="st0" width="1281" height="989"/>
<linearGradient id="XMLID_24_" gradientUnits="userSpaceOnUse" x1="55.2346" y1="-15.9362" x2="63.5734" y2="309.278">
	<stop  offset="7.216597e-02" style="stop-color:#00393A;stop-opacity:0.6243"/>
	<stop  offset="0.1181" style="stop-color:#0A4142;stop-opacity:0.5711"/>
	<stop  offset="0.1963" style="stop-color:#255657;stop-opacity:0.4804"/>
	<stop  offset="0.2974" style="stop-color:#517879;stop-opacity:0.3631"/>
	<stop  offset="0.4175" style="stop-color:#8EA7A8;stop-opacity:0.224"/>
	<stop  offset="0.552" style="stop-color:#DBE3E3;stop-opacity:6.800723e-02"/>
	<stop  offset="0.6106" style="stop-color:#FFFFFF;stop-opacity:0"/>
	<stop  offset="0.8148" style="stop-color:#003A46;stop-opacity:0"/>
</linearGradient>
<polygon id="XMLID_98_" class="st1" points="121.2,0 110.1,164.8 0.2,396.4 0,0 "/>
<polygon id="XMLID_97_" class="st2" points="224.9,0 281.1,260.2 109.1,164.8 195.1,0 "/>
<linearGradient id="XMLID_25_" gradientUnits="userSpaceOnUse" x1="308.4677" y1="-84.9502" x2="346.7886" y2="231.8358">
	<stop  offset="0.3373" style="stop-color:#FFFFFF"/>
	<stop  offset="1" style="stop-color:#FFFFFF;stop-opacity:0"/>
</linearGradient>
<polygon id="XMLID_96_" class="st3" points="379.9,43.9 281.1,260.2 429.2,341.9 "/>
<linearGradient id="XMLID_26_" gradientUnits="userSpaceOnUse" x1="909.403" y1="166.715" x2="539.7194" y2="171.8495">
	<stop  offset="0.4963" style="stop-color:#FFFFFF"/>
	<stop  offset="1" style="stop-color:#FFFFFF;stop-opacity:0"/>
</linearGradient>
<polygon id="XMLID_95_" class="st4" points="739.2,0 648.9,341.9 379.9,47.2 558.7,0 "/>
<linearGradient id="XMLID_27_" gradientUnits="userSpaceOnUse" x1="868.5345" y1="259.7523" x2="808.4319" y2="-14.3158">
	<stop  offset="0.367" style="stop-color:#FFFFFF"/>
	<stop  offset="0.4448" style="stop-color:#FBFDFC;stop-opacity:0.8771"/>
	<stop  offset="0.524" style="stop-color:#EFF5F1;stop-opacity:0.7519"/>
	<stop  offset="0.604" style="stop-color:#DAE9E0;stop-opacity:0.6256"/>
	<stop  offset="0.6844" style="stop-color:#BED8C8;stop-opacity:0.4985"/>
	<stop  offset="0.7653" style="stop-color:#99C2AA;stop-opacity:0.3707"/>
	<stop  offset="0.8466" style="stop-color:#6BA884;stop-opacity:0.2424"/>
	<stop  offset="0.9265" style="stop-color:#378958;stop-opacity:0.1161"/>
	<stop  offset="1" style="stop-color:#00682A;stop-opacity:0"/>
</linearGradient>
<polygon id="XMLID_94_" class="st5" points="794.5,0.7 794,208.5 875,0.7 "/>
<polygon id="XMLID_93_" class="st6" points="1035,0.7 793.5,211 1124.9,406.2 1098,0.7 "/>
<polygon id="XMLID_92_" class="st7" points="1120.1,0 1276.5,499.3 1276.5,656.8 1127.5,404 1098,0 "/>
<polygon id="XMLID_91_" class="st8" points="793.3,210.9 942.3,445.2 649,341.8 "/>
<linearGradient id="XMLID_28_" gradientUnits="userSpaceOnUse" x1="971.5616" y1="722.5113" x2="1132.0319" y2="444.5686">
	<stop  offset="0.4963" style="stop-color:#FFFFFF"/>
	<stop  offset="1" style="stop-color:#FFFFFF;stop-opacity:0"/>
</linearGradient>
<polygon id="XMLID_90_" class="st9" points="1127.5,404.2 1117.2,793.2 945.2,445.1 "/>
<polygon id="XMLID_89_" class="st10" points="793.3,210.9 1124.6,406.5 942.3,445.2 "/>
<linearGradient id="XMLID_29_" gradientUnits="userSpaceOnUse" x1="132.5743" y1="261.2117" x2="45.9119" y2="508.4545">
	<stop  offset="0.3373" style="stop-color:#FFFFFF"/>
	<stop  offset="1" style="stop-color:#FFFFFF;stop-opacity:0"/>
</linearGradient>
<polygon id="XMLID_88_" class="st11" points="109.1,164.8 156.8,433.9 1.2,433.9 0.8,395.4 "/>
<polygon id="XMLID_87_" class="st8" points="281.1,260.2 156.8,433.9 109.1,164.8 "/>
<linearGradient id="XMLID_30_" gradientUnits="userSpaceOnUse" x1="702.2495" y1="1045.703" x2="357.3615" y2="189.8698">
	<stop  offset="0.4963" style="stop-color:#FFFFFF"/>
	<stop  offset="1" style="stop-color:#FFFFFF;stop-opacity:0"/>
</linearGradient>
<polygon id="XMLID_86_" class="st12" points="305.8,411.7 429.2,341.9 596.1,561.6 705.1,703 534.8,866.4 410.5,648.5 "/>
<polygon id="XMLID_85_" class="st13" points="429.2,341.9 648.9,341.9 596.1,561.6 "/>
<linearGradient id="XMLID_31_" gradientUnits="userSpaceOnUse" x1="35.9431" y1="638.3681" x2="148.1326" y2="488.0015">
	<stop  offset="0.3373" style="stop-color:#FFFFFF"/>
	<stop  offset="1" style="stop-color:#FFFFFF;stop-opacity:0"/>
</linearGradient>
<polygon id="XMLID_84_" class="st14" points="1.2,433.9 156.8,433.9 248.7,604.2 "/>
<linearGradient id="XMLID_32_" gradientUnits="userSpaceOnUse" x1="-77.2422" y1="573.7054" x2="394.214" y2="787.5675">
	<stop  offset="0.2522" style="stop-color:#056F6E"/>
	<stop  offset="0.3893" style="stop-color:#1D8D7F"/>
	<stop  offset="0.6144" style="stop-color:#42BC99"/>
</linearGradient>
<polygon id="XMLID_83_" class="st15" points="410.9,648.4 144.1,849.4 1,478.2 1,433.9 250.5,604.2 "/>
<linearGradient id="XMLID_33_" gradientUnits="userSpaceOnUse" x1="1.283885e-05" y1="671.8624" x2="144.0434" y2="671.8624">
	<stop  offset="0" style="stop-color:#006463"/>
	<stop  offset="0.7648" style="stop-color:#26A799"/>
</linearGradient>
<polygon id="XMLID_82_" class="st16" points="1,478.2 144,849.6 0,865.6 "/>
<polygon id="XMLID_81_" class="st7" points="1276.5,958.4 1117.2,793.2 1276.5,657 "/>
<linearGradient id="XMLID_34_" gradientUnits="userSpaceOnUse" x1="534.8254" y1="889.0015" x2="1276.4733" y2="889.0015">
	<stop  offset="0.4963" style="stop-color:#FFFFFF"/>
	<stop  offset="1" style="stop-color:#FFFFFF;stop-opacity:0"/>
</linearGradient>
<polygon id="XMLID_80_" class="st17" points="534.8,866.4 1117.2,793.2 1276.5,958.4 1276.5,984.8 "/>
<linearGradient id="XMLID_35_" gradientUnits="userSpaceOnUse" x1="328.4146" y1="635.4805" x2="233.8898" y2="428.5477">
	<stop  offset="0" style="stop-color:#FFFFFF"/>
	<stop  offset="1" style="stop-color:#FFFFFF;stop-opacity:0"/>
</linearGradient>
<polygon id="XMLID_79_" class="st18" points="305.8,411.7 248.7,604.2 156.8,433.9 "/>
<polygon id="XMLID_78_" class="st6" points="1120.1,1.2 1280,0 1280,499.6 "/>
<linearGradient id="XMLID_36_" gradientUnits="userSpaceOnUse" x1="959.7091" y1="830.796" x2="761.1321" y2="454.5449">
	<stop  offset="0.2575" style="stop-color:#FFFFFF"/>
	<stop  offset="0.3737" style="stop-color:#FFFFFF"/>
	<stop  offset="0.8099" style="stop-color:#FFFFFF;stop-opacity:0"/>
</linearGradient>
<polygon id="XMLID_77_" class="st19" points="944.2,445.1 704.1,703 1117.2,793.2 "/>
<linearGradient id="XMLID_37_" gradientUnits="userSpaceOnUse" x1="67.3483" y1="347.028" x2="459.0095" y2="347.028">
	<stop  offset="0.3373" style="stop-color:#FFFFFF"/>
	<stop  offset="1" style="stop-color:#FFFFFF;stop-opacity:0"/>
</linearGradient>
<polygon id="XMLID_76_" class="st20" points="281.1,260.2 429.2,341.9 305.8,411.7 156.8,433.9 "/>
<linearGradient id="XMLID_56_" gradientUnits="userSpaceOnUse" x1="818.4642" y1="605.9802" x2="680.0541" y2="316.8019">
	<stop  offset="0" style="stop-color:#FFFFFF"/>
	<stop  offset="1" style="stop-color:#FFFFFF;stop-opacity:0"/>
</linearGradient>
<polygon id="XMLID_75_" class="st21" points="596.1,561 705.1,702.3 942.4,445.2 648.9,341.3 "/>
<linearGradient id="XMLID_57_" gradientUnits="userSpaceOnUse" x1="554.8868" y1="364.747" x2="416.9316" y2="165.4784">
	<stop  offset="0.3373" style="stop-color:#FFFFFF"/>
	<stop  offset="1" style="stop-color:#FFFFFF;stop-opacity:0"/>
</linearGradient>
<polygon id="XMLID_74_" class="st22" points="379.9,43.9 648.9,341.9 429.2,341.9 "/>
<linearGradient id="XMLID_58_" gradientUnits="userSpaceOnUse" x1="144.2359" y1="726.8831" x2="410.8753" y2="726.8831">
	<stop  offset="0.4963" style="stop-color:#FFFFFF"/>
	<stop  offset="1" style="stop-color:#FFFFFF;stop-opacity:0"/>
</linearGradient>
<polygon id="XMLID_73_" class="st23" points="248.7,604.2 144.2,849.6 410.9,648.2 "/>
<linearGradient id="XMLID_59_" gradientUnits="userSpaceOnUse" x1="197.0576" y1="1072.7743" x2="350.4219" y2="771.7798">
	<stop  offset="0" style="stop-color:#FFFFFF"/>
	<stop  offset="1" style="stop-color:#D1DD27;stop-opacity:0"/>
</linearGradient>
<polygon id="XMLID_72_" class="st24" points="9.3,984.8 142.3,849.4 410.5,648.5 534.8,866.4 "/>
<linearGradient id="XMLID_60_" gradientUnits="userSpaceOnUse" x1="964.9896" y1="734.5191" x2="160.4034" y2="937.301">
	<stop  offset="0.2575" style="stop-color:#FFFFFF"/>
	<stop  offset="0.3737" style="stop-color:#FFFFFF"/>
	<stop  offset="0.8099" style="stop-color:#FFFFFF;stop-opacity:0"/>
</linearGradient>
<polygon id="XMLID_71_" class="st25" points="534.8,866.4 705.1,703 1117.2,793.2 "/>
<linearGradient id="XMLID_61_" gradientUnits="userSpaceOnUse" x1="610.7355" y1="-19.1211" x2="776.6317" y2="268.2197">
	<stop  offset="0.3373" style="stop-color:#FFFFFF"/>
	<stop  offset="1" style="stop-color:#FFFFFF;stop-opacity:0"/>
</linearGradient>
<polygon id="XMLID_69_" class="st26" points="577.5,0.1 792,0.1 793.4,210.9 649,341.9 "/>
</svg>
