<?xml version="1.0" encoding="utf-8"?>
<!-- Generator: Adobe Illustrator 16.0.4, SVG Export Plug-In . SVG Version: 6.00 Build 0)  -->
<!DOCTYPE svg PUBLIC "-//W3C//DTD SVG 1.1//EN" "http://www.w3.org/Graphics/SVG/1.1/DTD/svg11.dtd">
<svg version="1.1" id="Layer_1" xmlns="http://www.w3.org/2000/svg" xmlns:xlink="http://www.w3.org/1999/xlink" x="0px" y="0px"
	 width="277.667px" height="69px" viewBox="0 0 277.667 69" enable-background="new 0 0 277.667 69" xml:space="preserve">
<g>
	<g>
		<path fill="#004D71" d="M92.897,49.451V18.43L80.096,49.451h-1.158L66.086,18.43v31.021h-3.001V14.32h4.478l11.955,28.968
			L91.419,14.32h4.528v35.131H92.897z"/>
		<path fill="#004D71" d="M100.007,36.706c0-7.427,4.792-13.325,12.22-13.325c7.531,0,12.271,5.898,12.271,13.325
			c0,7.426-4.739,13.377-12.271,13.377C104.799,50.083,100.007,44.131,100.007,36.706z M121.548,36.706
			c0-5.636-3.317-10.851-9.321-10.851c-5.898,0-9.269,5.215-9.269,10.851c0,5.688,3.37,10.901,9.269,10.901
			C118.231,47.607,121.548,42.395,121.548,36.706z"/>
		<path fill="#004D71" d="M135.298,49.451l-10.745-25.439h3.055l9.27,22.227l9.164-22.227h3.107l-10.746,25.439H135.298z"/>
		<path fill="#004D71" d="M149.204,36.706c0-7.374,5.214-13.325,12.273-13.325c7.742,0,12.006,6.162,12.006,13.482v0.738h-21.277
			c0.265,5.529,3.951,10.111,9.955,10.111c3.213,0,6.162-1.211,8.322-3.529l1.422,1.791c-2.527,2.633-5.74,4.108-9.955,4.108
			C154.522,50.083,149.204,44.553,149.204,36.706z M161.422,25.75c-6.006,0-9.005,5.268-9.219,9.691h18.488
			C170.641,31.123,167.795,25.75,161.422,25.75z"/>
		<path fill="#004D71" d="M207.719,49.451V31.648c0-3.582-1.527-5.793-5.107-5.793c-2.738,0-5.846,2-7.27,4.318v19.277h-2.791
			V31.648c0-3.582-1.477-5.793-5.109-5.793c-2.686,0-5.74,2.054-7.268,4.371v19.225h-2.738V24.012h2.738v3.846
			c1.055-1.633,4.527-4.478,8.215-4.478c3.953,0,6.059,2.317,6.688,4.792c1.424-2.37,4.85-4.792,8.43-4.792
			c4.688,0,6.951,2.634,6.951,7.742v18.329H207.719L207.719,49.451z"/>
		<path fill="#004D71" d="M213.356,36.706c0-7.374,5.215-13.325,12.271-13.325c7.742,0,12.012,6.162,12.012,13.482v0.738H216.36
			c0.264,5.529,3.949,10.111,9.955,10.111c3.213,0,6.16-1.211,8.32-3.529l1.422,1.791c-2.527,2.633-5.74,4.108-9.953,4.108
			C218.676,50.083,213.356,44.553,213.356,36.706z M225.577,25.75c-6.004,0-9.008,5.268-9.217,9.691h18.484
			C234.792,31.123,231.95,25.75,225.577,25.75z"/>
		<path fill="#004D71" d="M257.704,49.451V32.229c0-4.898-2.475-6.373-6.16-6.373c-3.266,0-6.637,2.054-8.271,4.371v19.225h-2.736
			V24.012h2.736v3.846c1.846-2.213,5.479-4.478,9.168-4.478c5.16,0,8.004,2.528,8.004,8.269v17.803H257.704L257.704,49.451z"/>
		<path fill="#004D71" d="M265.344,44.553V26.436h-4.217v-2.424h4.217v-6.951h2.789v6.951h5.162v2.424h-5.162v17.695
			c0,2.055,0.844,3.477,2.637,3.477c1.211,0,2.264-0.58,2.842-1.211l1.053,2.106c-1,0.948-2.211,1.58-4.316,1.58
			C266.975,50.083,265.344,48.029,265.344,44.553z"/>
	</g>
	<g>
		<g>
			<path fill="#FFFFFF" d="M33.063,33.109v-0.205c0-0.311-0.117-0.805-0.314-1.096c-3.51-4.619-10.701-13.599-16.604-20.949
				l-2.66,1.574l-0.002,0.008c4.157,6.963,9.012,15.373,12.232,20.982l0.174,0.303l-3.859,6.779
				c-2.352,4.124-4.981,8.887-7.484,13.299l2.748,1.463c5.529-7.289,11.998-15.828,15.324-20.457
				C32.893,34.404,33.063,33.764,33.063,33.109z"/>
			<path fill="#6D6E71" d="M25.714,33.423c-3.22-5.608-8.075-14.021-12.233-20.981c-0.008-0.014-0.016-0.026-0.023-0.041
				C6.974,16.846,2.666,24.332,2.666,32.786c0,8.899,4.794,16.71,11.862,21.048c0.006-0.01,0.012-0.021,0.017-0.031
				c2.502-4.412,5.133-9.175,7.483-13.299l3.86-6.779L25.714,33.423z"/>
			<path fill="#004D71" d="M27.409,8.12c-4.062,0-7.885,1-11.264,2.739c5.901,7.352,13.094,16.332,16.603,20.949
				c0.196,0.291,0.315,0.785,0.315,1.096v0.205c0,0.654-0.17,1.295-0.447,1.701c-3.325,4.629-9.795,13.168-15.323,20.457
				c3.089,1.393,6.506,2.187,10.116,2.187c13.623,0,24.666-11.044,24.666-24.667S41.032,8.12,27.409,8.12z"/>
		</g>
		<path fill="#6D6E71" d="M10.11,61.654v3.093c1.633-2.166,3.734-4.937,6.022-7.952c0.381-0.501,0.769-1.012,1.16-1.527
			c-0.953-0.431-1.868-0.924-2.753-1.466C12.936,56.633,11.409,59.335,10.11,61.654z"/>
		<path fill="#6D6E71" d="M14.231,8.475c-1.537-1.912-2.942-3.664-4.121-5.134v3.493c1.021,1.675,2.168,3.58,3.375,5.6
			c0.848-0.582,1.739-1.101,2.66-1.574C15.491,10.043,14.846,9.243,14.231,8.475z"/>
	</g>
</g>
</svg>
