<?xml version="1.0" encoding="utf-8"?>
<!-- Generator: Adobe Illustrator 19.0.0, SVG Export Plug-In . SVG Version: 6.00 Build 0)  -->
<svg version="1.1" id="Layer_1" xmlns="http://www.w3.org/2000/svg" xmlns:xlink="http://www.w3.org/1999/xlink" x="0px" y="0px"
	 viewBox="-61 298.9 307.7 53.1" style="enable-background:new -61 298.9 307.7 53.1;" xml:space="preserve">
<style type="text/css">
	.st0{fill:#005170;}
</style>
<g>
	<polygon class="st0" points="20.6,337 -9.5,307 -17.5,307 -17.5,343.7 -11,343.7 -11,313.7 19,343.7 27.1,343.7 27.1,307 20.6,307 
			"/>
	<rect x="53.1" y="307" class="st0" width="6.5" height="36.6"/>
	<polygon class="st0" points="92,327.3 115.1,327.3 115.1,322 92,322 92,312.5 125.2,312.5 125.2,307 85.5,307 85.5,343.7 
		126.7,343.7 126.7,338.2 92,338.2 	"/>
	<polygon class="st0" points="176.3,329.2 157.5,307 149.3,307 149.3,343.7 155.9,343.7 155.9,313.8 156,313.8 176.3,337.5 
		196.7,313.8 196.9,313.8 196.9,343.7 203.4,343.7 203.4,307 195.3,307 	"/>
	<path class="st0" d="M-61,326.2v0.2c0,0.3,0.1,0.8,0.3,1.2c4.3,5.6,14.9,18.8,19.4,24.4l0.1-4.5c-3.9-6.3-9.7-16.3-12.9-21.8
		c3.1-5.5,9.1-16.1,12.9-22.7v-4.2c-4.3,5.8-15,19.7-19.3,25.7C-60.9,325-61,325.8-61,326.2z"/>
	<path class="st0" d="M246.2,324.5c-4.3-6-15-19.9-19.3-25.7v4.2c3.7,6.6,9.8,17.3,12.9,22.7c-3.2,5.5-9,15.5-12.9,21.8l0.1,0v4.5
		c4.5-5.6,15.1-18.8,19.4-24.4c0.2-0.4,0.3-0.9,0.3-1.2v-0.2C246.7,325.8,246.5,325,246.2,324.5z"/>
	<polygon class="st0" points="232.9,349 233.9,349 233.9,351.5 234.2,351.5 234.2,349 235.2,349 235.2,348.7 232.9,348.7 	"/>
	<polygon class="st0" points="237.6,351 236.8,348.5 236.1,348.5 236.1,351.5 236.5,351.5 236.5,348.8 237.4,351.5 237.8,351.5 
		238.7,348.8 238.7,351.5 239.1,351.5 239.1,348.5 238.4,348.5 	"/>
</g>
</svg>
