<?xml version="1.0" encoding="utf-8"?>
<!-- Generator: Adobe Illustrator 19.1.0, SVG Export Plug-In . SVG Version: 6.00 Build 0)  -->
<svg version="1.1" id="Layer_1" xmlns="http://www.w3.org/2000/svg" xmlns:xlink="http://www.w3.org/1999/xlink" x="0px" y="0px"
	 viewBox="0 0 307.7 53.1" style="enable-background:new 0 0 307.7 53.1;" xml:space="preserve">
<style type="text/css">
	.st0{fill:#FFFFFF;}
	.st1{fill:#A7B4AD;}
</style>
<polygon class="st0" points="88.1,44.8 80,44.8 50,14.8 50,44.8 43.5,44.8 43.5,8.2 51.5,8.2 81.6,38.2 81.6,8.2 88.1,8.2 "/>
<rect x="114.1" y="8.2" class="st0" width="6.5" height="36.6"/>
<polygon class="st0" points="187.7,44.8 146.5,44.8 146.5,8.2 186.2,8.2 186.2,13.7 153,13.7 153,23.1 176.1,23.1 176.1,28.5 
	153,28.5 153,39.3 187.7,39.3 "/>
<polygon class="st0" points="264.4,44.8 257.9,44.8 257.9,14.9 257.7,14.9 237.3,38.7 217,14.9 216.9,14.9 216.9,44.8 210.3,44.8 
	210.3,8.2 218.5,8.2 237.3,30.3 256.3,8.2 264.4,8.2 "/>
<path class="st0" d="M19.8,48.7c-3.9-6.3-9.7-16.3-12.9-21.8C10,21.4,16,10.8,19.8,4.2V0c-4.3,5.8-15,19.7-19.3,25.7
	C0.1,26.2,0,26.9,0,27.4v0.2c0,0.3,0.1,0.8,0.3,1.2c4.3,5.6,14.9,18.8,19.4,24.4V48.7z"/>
<path class="st0" d="M287.9,48.7c3.9-6.3,9.7-16.3,12.9-21.8c-3.1-5.4-9.2-16.1-12.9-22.7V0c4.3,5.8,15,19.7,19.3,25.7
	c0.3,0.5,0.5,1.2,0.5,1.7v0.2c0,0.3-0.1,0.8-0.3,1.2c-4.3,5.6-14.9,18.8-19.4,24.4V48.7z"/>
<g>
	<g>
		<path class="st1" d="M294.9,52.6v-2.5h-1v-0.3h2.3v0.3h-1v2.5H294.9z"/>
		<path class="st1" d="M297.1,49.7h0.7l0.8,2.4l0.8-2.4h0.7v2.9h-0.4V50l-0.9,2.6h-0.4l-0.9-2.6v2.6h-0.4L297.1,49.7L297.1,49.7z"/>
	</g>
</g>
</svg>
