<?xml version="1.0" encoding="utf-8"?>
<!-- Generator: Adobe Illustrator 20.0.0, SVG Export Plug-In . SVG Version: 6.00 Build 0)  -->
<svg version="1.1" id="Layer_1" xmlns="http://www.w3.org/2000/svg" xmlns:xlink="http://www.w3.org/1999/xlink" x="0px" y="0px"
	 viewBox="0 0 30 30" style="enable-background:new 0 0 30 30;" xml:space="preserve">
<style type="text/css">
	.st0{fill-rule:evenodd;clip-rule:evenodd;fill:#0274B3;}
	.st1{fill:#FFFFFF;}
</style>
<path class="st0" d="M0,0h27c1.7,0,3,1.3,3,3v24c0,1.7-1.3,3-3,3H0V0z"/>
<path class="st1" d="M14.9,22.9c-0.3,0-0.5-0.1-0.7-0.3l-4.9-4.8C9.1,17.7,9,17.4,9,17.1c0-0.3,0.1-0.5,0.4-0.7l0.2-0.2
	c0.4-0.3,1-0.3,1.3,0l4.1,4l4.5-3.8c0.4-0.3,1-0.3,1.3,0l0.2,0.2c0.2,0.2,0.3,0.5,0.3,0.8s-0.1,0.5-0.4,0.7l-5.3,4.5
	c0,0-0.1,0.1-0.1,0.1C15.4,22.9,15.1,22.9,14.9,22.9z"/>
<path class="st1" d="M20.1,12.9c-0.3,0-0.5-0.1-0.7-0.3l-4.1-4l-4.5,3.8c-0.4,0.3-1,0.3-1.3,0l-0.2-0.2C9.1,12,9,11.8,9,11.5
	c0-0.3,0.1-0.5,0.4-0.7l5.3-4.5c0,0,0.1-0.1,0.1-0.1c0.4-0.3,0.9-0.3,1.3,0.1L21,11c0.2,0.2,0.3,0.5,0.3,0.8c0,0.3-0.1,0.5-0.4,0.7
	l-0.2,0.2C20.6,12.8,20.3,12.9,20.1,12.9z"/>
</svg>
